<?xml version="1.0" standalone="no"?>
<svg version="1.0" xmlns="http://www.w3.org/2000/svg"
 width="107.000000pt" height="72.000000pt" viewBox="0 0 107.000000 72.000000"
 preserveAspectRatio="xMidYMid meet">

<g transform="translate(0.000000,72.000000) scale(0.100000,-0.100000)"
fill="#000000" stroke="none">
<path d="M489 679 c-56 -8 -119 -37 -126 -56 -10 -24 3 -24 58 2 74 34 163 34
237 0 63 -29 62 -29 62 -11 0 42 -137 80 -231 65z"/>
<path d="M218 493 l-3 -168 -40 -6 c-59 -8 -85 -26 -106 -75 -36 -79 3 -160
87 -183 53 -15 715 -15 768 0 84 23 123 104 87 183 -21 49 -47 67 -106 75
l-40 6 -3 168 c-2 159 -3 167 -22 167 -19 0 -20 -7 -20 -170 l0 -170 -280 0
-280 0 0 170 c0 163 -1 170 -20 170 -19 0 -20 -8 -22 -167z m30 -259 c42 -29
16 -104 -37 -104 -24 0 -51 32 -51 61 0 27 30 59 55 59 6 0 21 -7 33 -16z
m308 -36 c9 -28 -20 -52 -47 -37 -19 10 -25 39 -12 52 15 16 52 6 59 -15z
m122 -5 c4 -30 -31 -49 -52 -27 -19 19 -20 26 -4 42 19 19 53 10 56 -15z m120
0 c5 -33 -30 -48 -53 -23 -15 16 -16 22 -5 35 19 22 54 15 58 -12z m120 4 c6
-28 -16 -49 -39 -36 -19 10 -25 39 -12 53 13 13 48 1 51 -17z"/>
<path d="M474 599 c-35 -10 -59 -33 -50 -48 4 -6 23 -2 49 9 23 11 53 20 67
20 14 0 44 -9 67 -20 44 -19 65 -12 43 15 -25 30 -113 42 -176 24z"/>
<path d="M498 519 c-10 -5 -18 -17 -18 -26 0 -11 5 -13 18 -7 22 10 62 10 85
0 12 -6 17 -4 17 8 0 31 -65 47 -102 25z"/>
<path d="M520 445 c-17 -20 -5 -45 20 -45 11 0 23 7 26 15 6 15 -11 45 -26 45
-4 0 -13 -7 -20 -15z"/>
</g>
</svg>
